<?xml version="1.0" encoding="us-ascii" standalone="no"?><svg xmlns="http://www.w3.org/2000/svg" xmlns:xlink="http://www.w3.org/1999/xlink" contentStyleType="text/css" height="873px" preserveAspectRatio="none" style="width:846px;height:873px;background:#FFFFFF;" version="1.1" viewBox="0 0 846 873" width="846px" zoomAndPan="magnify"><defs/><g><rect fill="#FFC0CB" height="51.1992" rx="18.75" ry="18.75" style="stroke:#181818;stroke-width:0.75;" width="249" x="298.5" y="16.5"/><text fill="#000000" font-family="sans-serif" font-size="18" lengthAdjust="spacing" textLength="219" x="313.5" y="48.9023">Thin film on 4-inch wafer</text><line style="stroke:#181818;stroke-width:2.25;" x1="423" x2="423" y1="97.6992" y2="97.6992"/><rect fill="#C0C0C0" height="744.8555" rx="7.5" ry="7.5" style="stroke:#0000CD;stroke-width:2.25;" width="813" x="16.5" y="112.6992"/><path d="M187.5,112.6992 L187.5,126.9316 L172.5,141.9316 L16.5,141.9316 " fill="none" style="stroke:#0000CD;stroke-width:2.25;"/><text fill="#0000CD" font-family="sans-serif" font-size="21" lengthAdjust="spacing" textLength="156" x="21" y="134.502">SEM/EDX scans</text><rect fill="#ADD8E6" height="51.1992" rx="18.75" ry="18.75" style="stroke:#181818;stroke-width:0.75;" width="510" x="168" y="167.4316"/><text fill="#000000" font-family="sans-serif" font-size="18" lengthAdjust="spacing" textLength="480" x="183" y="199.834">Setting working voltage (kV) and working distance (mm)</text><rect fill="#ADD8E6" height="51.1992" rx="18.75" ry="18.75" style="stroke:#181818;stroke-width:0.75;" width="568.5" x="138.75" y="248.6309"/><text fill="#000000" font-family="sans-serif" font-size="18" lengthAdjust="spacing" textLength="538.5" x="153.75" y="281.0332">Setting focus and optical abberations (aperture and stigmator)</text><line style="stroke:#181818;stroke-width:2.25;" x1="224.25" x2="633.75" y1="329.8301" y2="329.8301"/><rect fill="#F5F5DC" height="473.5254" rx="7.5" ry="7.5" style="stroke:#1E90FF;stroke-width:2.25;" width="379.5" x="34.5" y="355.4297"/><path d="M91.5,355.4297 L91.5,369.6621 L76.5,384.6621 L34.5,384.6621 " fill="none" style="stroke:#1E90FF;stroke-width:2.25;"/><text fill="#1E90FF" font-family="sans-serif" font-size="21" lengthAdjust="spacing" textLength="42" x="39" y="377.2324">SEM</text><rect fill="#ADD8E6" height="72.3984" rx="18.75" ry="18.75" style="stroke:#181818;stroke-width:0.75;" width="304.5" x="72" y="410.1621"/><text fill="#000000" font-family="sans-serif" font-size="18" lengthAdjust="spacing" textLength="274.5" x="87" y="442.5645">Setting autofocus and automatic</text><text fill="#000000" font-family="sans-serif" font-size="18" lengthAdjust="spacing" textLength="214.5" x="117" y="463.7637">electron image acquision</text><rect fill="#228B22" height="51.1992" rx="18.75" ry="18.75" style="stroke:#181818;stroke-width:0.75;" width="280.5" x="84" y="523.1602"/><text fill="#FFFFFF" font-family="sans-serif" font-size="18" lengthAdjust="spacing" textLength="250.5" x="99" y="555.5625">Electron images of the grains</text><rect fill="#C9FFC9" height="72.3984" rx="18.75" ry="18.75" style="stroke:#181818;stroke-width:0.75;" width="349.5" x="49.5" y="614.959"/><text fill="#000000" font-family="sans-serif" font-size="18" lengthAdjust="spacing" textLength="319.5" x="64.5" y="647.3613">Fourier analysis to obtain information</text><text fill="#000000" font-family="sans-serif" font-size="18" lengthAdjust="spacing" textLength="216" x="116.25" y="668.5605">on periodicity of features</text><rect fill="#C9FFC9" height="72.3984" rx="18.75" ry="18.75" style="stroke:#0000FF;stroke-width:3.0;" width="220.5" x="114" y="727.957"/><text fill="#000000" font-family="sans-serif" font-size="18" lengthAdjust="spacing" textLength="190.5" x="129" y="760.3594">Grain size distribution</text><text fill="#000000" font-family="sans-serif" font-size="18" lengthAdjust="spacing" textLength="163.5" x="142.5" y="781.5586">and microstructure</text><rect fill="#F5F5DC" height="494.7246" rx="7.5" ry="7.5" style="stroke:#1E90FF;stroke-width:2.25;" width="355.5" x="456" y="344.8301"/><path d="M511.5,344.8301 L511.5,359.0625 L496.5,374.0625 L456,374.0625 " fill="none" style="stroke:#1E90FF;stroke-width:2.25;"/><text fill="#1E90FF" font-family="sans-serif" font-size="21" lengthAdjust="spacing" textLength="40.5" x="460.5" y="366.6328">EDX</text><rect fill="#ADD8E6" height="72.3984" rx="18.75" ry="18.75" style="stroke:#181818;stroke-width:0.75;" width="310.5" x="478.5" y="399.5625"/><text fill="#000000" font-family="sans-serif" font-size="18" lengthAdjust="spacing" textLength="280.5" x="493.5" y="431.9648">Setting reference points to make</text><text fill="#000000" font-family="sans-serif" font-size="18" lengthAdjust="spacing" textLength="199.5" x="534" y="453.1641">a full scan (289 points)</text><rect fill="#228B22" height="51.1992" rx="18.75" ry="18.75" style="stroke:#181818;stroke-width:0.75;" width="262.5" x="502.5" y="512.5605"/><text fill="#FFFFFF" font-family="sans-serif" font-size="18" lengthAdjust="spacing" textLength="232.5" x="517.5" y="544.9629">EDX spectra for each point</text><rect fill="#C9FFC9" height="72.3984" rx="18.75" ry="18.75" style="stroke:#181818;stroke-width:0.75;" width="244.5" x="511.5" y="604.3594"/><text fill="#000000" font-family="sans-serif" font-size="18" lengthAdjust="spacing" textLength="214.5" x="526.5" y="636.7617">Quantification of element</text><text fill="#000000" font-family="sans-serif" font-size="18" lengthAdjust="spacing" textLength="211.5" x="528" y="657.9609">using PB-ZAF integration</text><rect fill="#C9FFC9" height="93.5977" rx="18.75" ry="18.75" style="stroke:#0000FF;stroke-width:3.0;" width="325.5" x="471" y="717.3574"/><text fill="#000000" font-family="sans-serif" font-size="18" lengthAdjust="spacing" textLength="295.5" x="486" y="749.7598">2D composition maps of elements</text><text fill="#000000" font-family="sans-serif" font-size="18" lengthAdjust="spacing" textLength="241.5" x="513" y="770.959">(deconvoluting the elements</text><text fill="#000000" font-family="sans-serif" font-size="18" lengthAdjust="spacing" textLength="229.5" x="519" y="792.1582">that can not be quantified)</text><line style="stroke:#181818;stroke-width:1.5;" x1="423" x2="423" y1="218.6309" y2="248.6309"/><polygon fill="#181818" points="417,233.6309,423,248.6309,429,233.6309,423,239.6309" style="stroke:#181818;stroke-width:1.5;"/><line style="stroke:#181818;stroke-width:1.5;" x1="224.25" x2="224.25" y1="482.5605" y2="523.1602"/><polygon fill="#181818" points="218.25,508.1602,224.25,523.1602,230.25,508.1602,224.25,514.1602" style="stroke:#181818;stroke-width:1.5;"/><line style="stroke:#181818;stroke-width:1.5;" x1="224.25" x2="224.25" y1="574.3594" y2="614.959"/><polygon fill="#181818" points="218.25,599.959,224.25,614.959,230.25,599.959,224.25,605.959" style="stroke:#181818;stroke-width:1.5;"/><line style="stroke:#181818;stroke-width:1.5;" x1="224.25" x2="224.25" y1="687.3574" y2="727.957"/><polygon fill="#181818" points="218.25,712.957,224.25,727.957,230.25,712.957,224.25,718.957" style="stroke:#181818;stroke-width:1.5;"/><line style="stroke:#181818;stroke-width:1.5;" x1="633.75" x2="633.75" y1="471.9609" y2="512.5605"/><polygon fill="#181818" points="627.75,497.5605,633.75,512.5605,639.75,497.5605,633.75,503.5605" style="stroke:#181818;stroke-width:1.5;"/><line style="stroke:#181818;stroke-width:1.5;" x1="633.75" x2="633.75" y1="563.7598" y2="604.3594"/><polygon fill="#181818" points="627.75,589.3594,633.75,604.3594,639.75,589.3594,633.75,595.3594" style="stroke:#181818;stroke-width:1.5;"/><line style="stroke:#181818;stroke-width:1.5;" x1="633.75" x2="633.75" y1="676.7578" y2="717.3574"/><polygon fill="#181818" points="627.75,702.3574,633.75,717.3574,639.75,702.3574,633.75,708.3574" style="stroke:#181818;stroke-width:1.5;"/><line style="stroke:#181818;stroke-width:1.5;" x1="224.25" x2="224.25" y1="332.0801" y2="410.1621"/><polygon fill="#181818" points="218.25,395.1621,224.25,410.1621,230.25,395.1621,224.25,401.1621" style="stroke:#181818;stroke-width:1.5;"/><line style="stroke:#181818;stroke-width:1.5;" x1="633.75" x2="633.75" y1="332.0801" y2="399.5625"/><polygon fill="#181818" points="627.75,384.5625,633.75,399.5625,639.75,384.5625,633.75,390.5625" style="stroke:#181818;stroke-width:1.5;"/><line style="stroke:#181818;stroke-width:1.5;" x1="423" x2="423" y1="299.8301" y2="329.8301"/><polygon fill="#181818" points="417,314.8301,423,329.8301,429,314.8301,423,320.8301" style="stroke:#181818;stroke-width:1.5;"/><line style="stroke:#181818;stroke-width:1.5;" x1="423" x2="423" y1="99.9492" y2="167.4316"/><polygon fill="#181818" points="417,152.4316,423,167.4316,429,152.4316,423,158.4316" style="stroke:#181818;stroke-width:1.5;"/><line style="stroke:#181818;stroke-width:1.5;" x1="423" x2="423" y1="67.6992" y2="97.6992"/><polygon fill="#181818" points="417,82.6992,423,97.6992,429,82.6992,423,88.6992" style="stroke:#181818;stroke-width:1.5;"/><!--SRC=[hLHDRnD13BtdLvXRUcWhAf2WZIg5Vi2b0jGA49V8cVKcLdR6snaFfVnwnfD-P9KMzS1SLhjZl_VyR6zos16ytdixUgLByWGNdqy-JK-dkoVVfz16yR2tj-_5BR71sOfrlqQbqUZmQia1MkuyI80tknpS4cwmfNW4aqbE56SE4nqVZrBViOwWd4MKtCFbsSN-sUaFI0v3capgnvcJhYEdBA5amDqvl2HL3WkuaRYovo_f51S4uzMt7S3GF5mqd1I3ApVUxvW0-jrJP4z1D_2sWLjnELKawPMB5u3pEKKq8Gd6M40qHweHINdXKILk4pm0FzPwVnvgXljIKo7kQ4FMG15cbKTLzbOusGs2oQoAnNRsvWQwwyofA7wsy47nbUvi0950MYYTBMgHGpASY3Up1XKtgwkPvv8ZKopoiBjDd405PAub3pYq4dqrRv1JQ4oKDEnORush9JHVAvEnpFeeZf9PiqNuqJH1uZzKsnnvdhSOp2lFBagvpywW3Rdbel6-YcUzQ4ZHBOS65xZQhAUpQfS15qNN4xsssNvPhoELTI4RsruuQBNIuug6fK6Rkwvk2umFths_Y_t74AuRR1lMMvCBW4IWKkCwzMZGtET7v6l6eDoMhJ2xhMjbxenh49QjHFZoOVVdzBmCWD9YlJqlwUp1AJZnlIIk31xxj46J1i7ZXfo4yWF8rJeRrYVZT8aAvbKGXJd1zLqLrEpyvv6mByDz7mq37mF-0W00]--></g></svg>