<?xml version="1.0" encoding="us-ascii" standalone="no"?><svg xmlns="http://www.w3.org/2000/svg" xmlns:xlink="http://www.w3.org/1999/xlink" contentStyleType="text/css" height="1002px" preserveAspectRatio="none" style="width:876px;height:1002px;background:#FFFFFF;" version="1.1" viewBox="0 0 876 1002" width="876px" zoomAndPan="magnify"><defs/><g><rect fill="#FFC0CB" height="51.1992" rx="18.75" ry="18.75" style="stroke:#181818;stroke-width:0.75;" width="249" x="313.5" y="16.5"/><text fill="#000000" font-family="sans-serif" font-size="18" lengthAdjust="spacing" textLength="219" x="328.5" y="48.9023">Thin film on 4-inch wafer</text><line style="stroke:#181818;stroke-width:2.25;" x1="438" x2="438" y1="97.6992" y2="97.6992"/><rect fill="#C0C0C0" height="873.6563" rx="7.5" ry="7.5" style="stroke:#0000CD;stroke-width:2.25;" width="843" x="16.5" y="112.6992"/><path d="M154.5,112.6992 L154.5,126.9316 L139.5,141.9316 L16.5,141.9316 " fill="none" style="stroke:#0000CD;stroke-width:2.25;"/><text fill="#0000CD" font-family="sans-serif" font-size="21" lengthAdjust="spacing" textLength="123" x="21" y="134.502">MOKE scans</text><rect fill="#ADD8E6" height="51.1992" rx="18.75" ry="18.75" style="stroke:#181818;stroke-width:0.75;" width="417" x="229.5" y="167.4316"/><text fill="#000000" font-family="sans-serif" font-size="18" lengthAdjust="spacing" textLength="387" x="244.5" y="199.834">Setting coil distance (&#956;m) and coil voltage (V)</text><rect fill="#ADD8E6" height="51.1992" rx="18.75" ry="18.75" style="stroke:#181818;stroke-width:0.75;" width="660" x="108" y="248.6309"/><text fill="#000000" font-family="sans-serif" font-size="18" lengthAdjust="spacing" textLength="630" x="123" y="281.0332">Setting scanning parameters (289 points) and nb of acquisition per point</text><line style="stroke:#181818;stroke-width:2.25;" x1="224.25" x2="648.75" y1="329.8301" y2="329.8301"/><rect fill="#F5F5DC" height="510.627" rx="7.5" ry="7.5" style="stroke:#1E90FF;stroke-width:2.25;" width="379.5" x="34.5" y="407.2793"/><path d="M156,407.2793 L156,421.5117 L141,436.5117 L34.5,436.5117 " fill="none" style="stroke:#1E90FF;stroke-width:2.25;"/><text fill="#1E90FF" font-family="sans-serif" font-size="21" lengthAdjust="spacing" textLength="106.5" x="39" y="429.082">Ambient T</text><rect fill="#ADD8E6" height="72.3984" rx="18.75" ry="18.75" style="stroke:#181818;stroke-width:0.75;" width="237" x="105.75" y="462.0117"/><text fill="#000000" font-family="sans-serif" font-size="18" lengthAdjust="spacing" textLength="187.5" x="130.5" y="494.4141">Applying a pulse field</text><text fill="#000000" font-family="sans-serif" font-size="18" lengthAdjust="spacing" textLength="207" x="120.75" y="515.6133">for each acquision point</text><rect fill="#228B22" height="72.3984" rx="18.75" ry="18.75" style="stroke:#181818;stroke-width:0.75;" width="274.5" x="87" y="586.9102"/><text fill="#FFFFFF" font-family="sans-serif" font-size="18" lengthAdjust="spacing" textLength="223.5" x="112.5" y="619.3125">MOKE signal (V) over time</text><text fill="#FFFFFF" font-family="sans-serif" font-size="18" lengthAdjust="spacing" textLength="244.5" x="102" y="640.5117">when pulsed field is applied</text><rect fill="#C9FFC9" height="72.3984" rx="18.75" ry="18.75" style="stroke:#181818;stroke-width:0.75;" width="349.5" x="49.5" y="711.8086"/><text fill="#000000" font-family="sans-serif" font-size="18" lengthAdjust="spacing" textLength="306" x="71.25" y="744.2109">Applied field calculation to get Kerr</text><text fill="#000000" font-family="sans-serif" font-size="18" lengthAdjust="spacing" textLength="319.5" x="64.5" y="765.4102">rotation as a function of applied field</text><rect fill="#C9FFC9" height="51.1992" rx="18.75" ry="18.75" style="stroke:#0000FF;stroke-width:3.0;" width="289.5" x="79.5" y="836.707"/><text fill="#000000" font-family="sans-serif" font-size="18" lengthAdjust="spacing" textLength="259.5" x="94.5" y="869.1094">Coercivity and reflectivity map</text><rect fill="#F5F5DC" height="623.5254" rx="7.5" ry="7.5" style="stroke:#1E90FF;stroke-width:2.25;" width="385.5" x="456" y="344.8301"/><path d="M574.5,344.8301 L574.5,359.0625 L559.5,374.0625 L456,374.0625 " fill="none" style="stroke:#1E90FF;stroke-width:2.25;"/><text fill="#1E90FF" font-family="sans-serif" font-size="21" lengthAdjust="spacing" textLength="103.5" x="460.5" y="366.6328">Variable T</text><rect fill="#ADD8E6" height="51.1992" rx="18.75" ry="18.75" style="stroke:#181818;stroke-width:0.75;" width="355.5" x="471" y="399.5625"/><text fill="#000000" font-family="sans-serif" font-size="18" lengthAdjust="spacing" textLength="325.5" x="486" y="431.9648">Setting a temperature range and step</text><rect fill="#ADD8E6" height="72.3984" rx="18.75" ry="18.75" style="stroke:#181818;stroke-width:0.75;" width="237" x="530.25" y="503.2617"/><text fill="#000000" font-family="sans-serif" font-size="18" lengthAdjust="spacing" textLength="187.5" x="555" y="535.6641">Applying a pulse field</text><text fill="#000000" font-family="sans-serif" font-size="18" lengthAdjust="spacing" textLength="207" x="545.25" y="556.8633">for each acquision point</text><rect fill="#228B22" height="72.3984" rx="18.75" ry="18.75" style="stroke:#181818;stroke-width:0.75;" width="274.5" x="511.5" y="628.1602"/><text fill="#FFFFFF" font-family="sans-serif" font-size="18" lengthAdjust="spacing" textLength="223.5" x="537" y="660.5625">MOKE signal (V) over time</text><text fill="#FFFFFF" font-family="sans-serif" font-size="18" lengthAdjust="spacing" textLength="244.5" x="526.5" y="681.7617">when pulsed field is applied</text><rect fill="#C9FFC9" height="72.3984" rx="18.75" ry="18.75" style="stroke:#181818;stroke-width:0.75;" width="349.5" x="474" y="753.0586"/><text fill="#000000" font-family="sans-serif" font-size="18" lengthAdjust="spacing" textLength="306" x="495.75" y="785.4609">Applied field calculation to get Kerr</text><text fill="#000000" font-family="sans-serif" font-size="18" lengthAdjust="spacing" textLength="319.5" x="489" y="806.6602">rotation as a function of applied field</text><rect fill="#C9FFC9" height="72.3984" rx="18.75" ry="18.75" style="stroke:#0000FF;stroke-width:3.0;" width="289.5" x="504" y="877.957"/><text fill="#000000" font-family="sans-serif" font-size="18" lengthAdjust="spacing" textLength="259.5" x="519" y="910.3594">Coercivity and reflectivity map</text><text fill="#000000" font-family="sans-serif" font-size="18" lengthAdjust="spacing" textLength="219" x="539.25" y="931.5586">at different temperatures</text><line style="stroke:#181818;stroke-width:1.5;" x1="438" x2="438" y1="218.6309" y2="248.6309"/><polygon fill="#181818" points="432,233.6309,438,248.6309,444,233.6309,438,239.6309" style="stroke:#181818;stroke-width:1.5;"/><line style="stroke:#181818;stroke-width:1.5;" x1="224.25" x2="224.25" y1="534.4102" y2="586.9102"/><polygon fill="#181818" points="218.25,571.9102,224.25,586.9102,230.25,571.9102,224.25,577.9102" style="stroke:#181818;stroke-width:1.5;"/><line style="stroke:#181818;stroke-width:1.5;" x1="224.25" x2="224.25" y1="659.3086" y2="711.8086"/><polygon fill="#181818" points="218.25,696.8086,224.25,711.8086,230.25,696.8086,224.25,702.8086" style="stroke:#181818;stroke-width:1.5;"/><line style="stroke:#181818;stroke-width:1.5;" x1="224.25" x2="224.25" y1="784.207" y2="836.707"/><polygon fill="#181818" points="218.25,821.707,224.25,836.707,230.25,821.707,224.25,827.707" style="stroke:#181818;stroke-width:1.5;"/><line style="stroke:#181818;stroke-width:1.5;" x1="648.75" x2="648.75" y1="450.7617" y2="503.2617"/><polygon fill="#181818" points="642.75,488.2617,648.75,503.2617,654.75,488.2617,648.75,494.2617" style="stroke:#181818;stroke-width:1.5;"/><line style="stroke:#181818;stroke-width:1.5;" x1="648.75" x2="648.75" y1="575.6602" y2="628.1602"/><polygon fill="#181818" points="642.75,613.1602,648.75,628.1602,654.75,613.1602,648.75,619.1602" style="stroke:#181818;stroke-width:1.5;"/><line style="stroke:#181818;stroke-width:1.5;" x1="648.75" x2="648.75" y1="700.5586" y2="753.0586"/><polygon fill="#181818" points="642.75,738.0586,648.75,753.0586,654.75,738.0586,648.75,744.0586" style="stroke:#181818;stroke-width:1.5;"/><line style="stroke:#181818;stroke-width:1.5;" x1="648.75" x2="648.75" y1="825.457" y2="877.957"/><polygon fill="#181818" points="642.75,862.957,648.75,877.957,654.75,862.957,648.75,868.957" style="stroke:#181818;stroke-width:1.5;"/><line style="stroke:#181818;stroke-width:1.5;" x1="224.25" x2="224.25" y1="332.0801" y2="462.0117"/><polygon fill="#181818" points="218.25,447.0117,224.25,462.0117,230.25,447.0117,224.25,453.0117" style="stroke:#181818;stroke-width:1.5;"/><line style="stroke:#181818;stroke-width:1.5;" x1="648.75" x2="648.75" y1="332.0801" y2="399.5625"/><polygon fill="#181818" points="642.75,384.5625,648.75,399.5625,654.75,384.5625,648.75,390.5625" style="stroke:#181818;stroke-width:1.5;"/><line style="stroke:#181818;stroke-width:1.5;" x1="438" x2="438" y1="299.8301" y2="329.8301"/><polygon fill="#181818" points="432,314.8301,438,329.8301,444,314.8301,438,320.8301" style="stroke:#181818;stroke-width:1.5;"/><line style="stroke:#181818;stroke-width:1.5;" x1="438" x2="438" y1="99.9492" y2="167.4316"/><polygon fill="#181818" points="432,152.4316,438,167.4316,444,152.4316,438,158.4316" style="stroke:#181818;stroke-width:1.5;"/><line style="stroke:#181818;stroke-width:1.5;" x1="438" x2="438" y1="67.6992" y2="97.6992"/><polygon fill="#181818" points="432,82.6992,438,97.6992,444,82.6992,438,88.6992" style="stroke:#181818;stroke-width:1.5;"/><!--SRC=[xLJ1RXCn4BtlLmotzj1K892WZIf50GcfGXo8oZ6QU6St8xosiMSJ-czy0z_4sDkqkqeGGe8RFbcZD_FUp3mx6RG4psUlgcUofOxWmyVb-yNRnSNoymAQw3kOpIuxRxPOu_eBosL1fQgwMctPGSEs0-_WvGKxiuKzDXIlOJxl4yMrmKGtDrKAbgK2FMtqVL26stUG3BeqdvV8sdXhoGXxft1uE5UVI8HT2yQpXPgJe3C4Pp- -T-U0hXxYEsy5MmtVdMTU-XOeSaTEHfMEIsPsboy18tOa51ESlNZz1e9d9scexpRW6q3pjUV4MHnexG5nHFL8yTJiuGnDBxeDAnHMS6WwAR-bSMwHk0Z1tcTf2A6tYNJ4PEi9fl4H27NS3zgoifEgnabJbc47t3gqUNJWTzgQQDu4jj-I6rJKWmpW1AW2cUfC5d6_hb7mP1FycAGMCxt5CaBnq9B0BSKuIObU1W0g0pIzAtOe2nZNogoPSHsYDvJo38_8bvwYuHtBVLbZfAQOgmGw3Bb4mzhuGVelfrIJw9Gd8TA2PNsdiyhs0LjaTy83TnWPD_hSLh_nmC6c24ATxXEbZmGHdHezjvI4mXyi-x-b_h6b9c0K_QmQ_GVpSn_jB_rbu-N8zBUffi0dm4y0]--></g></svg>