<?xml version="1.0" encoding="us-ascii" standalone="no"?><svg xmlns="http://www.w3.org/2000/svg" xmlns:xlink="http://www.w3.org/1999/xlink" contentStyleType="text/css" height="825px" preserveAspectRatio="none" style="width:625px;height:825px;background:#FFFFFF;" version="1.1" viewBox="0 0 625 825" width="625.5px" zoomAndPan="magnify"><defs/><g><rect fill="#FFC0CB" height="51.1992" rx="18.75" ry="18.75" style="stroke:#181818;stroke-width:0.75;" width="249" x="188.25" y="16.5"/><text fill="#000000" font-family="sans-serif" font-size="18" lengthAdjust="spacing" textLength="219" x="203.25" y="48.9023">Thin film on 4-inch wafer</text><line style="stroke:#181818;stroke-width:2.25;" x1="312.75" x2="312.75" y1="97.6992" y2="97.6992"/><rect fill="#C0C0C0" height="695.9238" rx="7.5" ry="7.5" style="stroke:#0000CD;stroke-width:2.25;" width="592.5" x="16.5" y="112.6992"/><path d="M210,112.6992 L210,126.9316 L195,141.9316 L16.5,141.9316 " fill="none" style="stroke:#0000CD;stroke-width:2.25;"/><text fill="#0000CD" font-family="sans-serif" font-size="21" lengthAdjust="spacing" textLength="178.5" x="21" y="134.502">XRD 2-theta scan</text><rect fill="#ADD8E6" height="51.1992" rx="18.75" ry="18.75" style="stroke:#181818;stroke-width:0.75;" width="385.5" x="120" y="167.4316"/><text fill="#000000" font-family="sans-serif" font-size="18" lengthAdjust="spacing" textLength="355.5" x="135" y="199.834">X-ray beam alignement with 0D detector</text><rect fill="#ADD8E6" height="72.3984" rx="18.75" ry="18.75" style="stroke:#181818;stroke-width:0.75;" width="562.5" x="31.5" y="248.6309"/><text fill="#000000" font-family="sans-serif" font-size="18" lengthAdjust="spacing" textLength="532.5" x="46.5" y="281.0332">Setting camera length and sample alignement for 2D camera.</text><text fill="#000000" font-family="sans-serif" font-size="18" lengthAdjust="spacing" textLength="370.5" x="127.5" y="302.2324">Setting fixed omega angle for 2-theta scan</text><rect fill="#228B22" height="51.1992" rx="18.75" ry="18.75" style="stroke:#181818;stroke-width:0.75;" width="421.5" x="102" y="351.0293"/><text fill="#FFFFFF" font-family="sans-serif" font-size="18" lengthAdjust="spacing" textLength="391.5" x="117" y="383.4316">Raw 2D images from a single aquisition point</text><rect fill="#C9FFC9" height="51.1992" rx="18.75" ry="18.75" style="stroke:#181818;stroke-width:0.75;" width="327" x="149.25" y="432.2285"/><text fill="#000000" font-family="sans-serif" font-size="18" lengthAdjust="spacing" textLength="297" x="164.25" y="464.6309">Radial integration of the 2D image</text><rect fill="#C9FFC9" height="72.3984" rx="18.75" ry="18.75" style="stroke:#181818;stroke-width:0.75;" width="343.5" x="141" y="513.4277"/><text fill="#000000" font-family="sans-serif" font-size="18" lengthAdjust="spacing" textLength="313.5" x="156" y="545.8301">Searching for expected phases from</text><text fill="#000000" font-family="sans-serif" font-size="18" lengthAdjust="spacing" textLength="172.5" x="226.5" y="567.0293">cif files using Profex</text><rect fill="#C9FFC9" height="72.3984" rx="18.75" ry="18.75" style="stroke:#181818;stroke-width:0.75;" width="294" x="165.75" y="615.8262"/><text fill="#000000" font-family="sans-serif" font-size="18" lengthAdjust="spacing" textLength="256.5" x="184.5" y="648.2285">Obtaining refined parameters</text><text fill="#000000" font-family="sans-serif" font-size="18" lengthAdjust="spacing" textLength="264" x="180.75" y="669.4277">from batch rietveld refinement</text><rect fill="#C9FFC9" height="72.3984" rx="18.75" ry="18.75" style="stroke:#0000FF;stroke-width:3.0;" width="333" x="146.25" y="718.2246"/><text fill="#000000" font-family="sans-serif" font-size="18" lengthAdjust="spacing" textLength="276" x="174.75" y="750.627">2D maps of refined parameters</text><text fill="#000000" font-family="sans-serif" font-size="18" lengthAdjust="spacing" textLength="303" x="161.25" y="771.8262">(lattice constants, volume fractions)</text><line style="stroke:#181818;stroke-width:1.5;" x1="312.75" x2="312.75" y1="218.6309" y2="248.6309"/><polygon fill="#181818" points="306.75,233.6309,312.75,248.6309,318.75,233.6309,312.75,239.6309" style="stroke:#181818;stroke-width:1.5;"/><line style="stroke:#181818;stroke-width:1.5;" x1="312.75" x2="312.75" y1="321.0293" y2="351.0293"/><polygon fill="#181818" points="306.75,336.0293,312.75,351.0293,318.75,336.0293,312.75,342.0293" style="stroke:#181818;stroke-width:1.5;"/><line style="stroke:#181818;stroke-width:1.5;" x1="312.75" x2="312.75" y1="402.2285" y2="432.2285"/><polygon fill="#181818" points="306.75,417.2285,312.75,432.2285,318.75,417.2285,312.75,423.2285" style="stroke:#181818;stroke-width:1.5;"/><line style="stroke:#181818;stroke-width:1.5;" x1="312.75" x2="312.75" y1="483.4277" y2="513.4277"/><polygon fill="#181818" points="306.75,498.4277,312.75,513.4277,318.75,498.4277,312.75,504.4277" style="stroke:#181818;stroke-width:1.5;"/><line style="stroke:#181818;stroke-width:1.5;" x1="312.75" x2="312.75" y1="585.8262" y2="615.8262"/><polygon fill="#181818" points="306.75,600.8262,312.75,615.8262,318.75,600.8262,312.75,606.8262" style="stroke:#181818;stroke-width:1.5;"/><line style="stroke:#181818;stroke-width:1.5;" x1="312.75" x2="312.75" y1="688.2246" y2="718.2246"/><polygon fill="#181818" points="306.75,703.2246,312.75,718.2246,318.75,703.2246,312.75,709.2246" style="stroke:#181818;stroke-width:1.5;"/><line style="stroke:#181818;stroke-width:1.5;" x1="312.75" x2="312.75" y1="99.9492" y2="167.4316"/><polygon fill="#181818" points="306.75,152.4316,312.75,167.4316,318.75,152.4316,312.75,158.4316" style="stroke:#181818;stroke-width:1.5;"/><line style="stroke:#181818;stroke-width:1.5;" x1="312.75" x2="312.75" y1="67.6992" y2="97.6992"/><polygon fill="#181818" points="306.75,82.6992,312.75,97.6992,318.75,82.6992,312.75,88.6992" style="stroke:#181818;stroke-width:1.5;"/><!--SRC=[ZLF9Rjim4BthAwQt5AYT1Uqb2G8OyQ6N84LQeBa9Osee3S959KUH-_STqgvh54XWdWZnBPp7fspG4LmklpGVP21FyF1u_tMrNYrCZ6x6vC6cw66vFFVH3DXX-y9oNg7vVyhzpzLxwERwny01B3iFCS3d1GSpm8oMqWtStawPKcimqzrTaqV7qe2kFiLfXEUdDLmjL4SGii6Wy7hGckWS6U4Ob0NxTVsyIFWRDeGUq74Vr3u8p2m3NAoX8r5AhAQq7IbnEJxY_nFwJY8SUZ3eAI4u2hrgOEWWenyrk2Dv6nDShVVGvK7ZhuJbBNKGFVMe0hroA-5eg1FkyuHpyM2FFULTrihbAeU_9ivSee0nSf0Ybt1kEnHyGwnZTA1GwXDMOhIWzpbO58b2RySK3ULYz4PCcCnGfzIPoWn6TDXnqDVSNVE0DMnB0_JpLEJWMugMjgSQFMu4EHHU8ikXU63Im8LIFg1gB1iKBLTYabTotHvUSZtLIZFmEEOIoJjUPmxrUGs1YI4B1icVu3MwIVyAcx0MCtyibgg0xlWjj8LeXhebxLEjSrDsk-x_0G00]--></g></svg>